<svg xmlns="http://www.w3.org/2000/svg" width="19.217" height="17.993" viewBox="0 0 19.217 17.993"><defs><style>.a{fill:#333;}</style></defs><path class="a" d="M.565,37.493a.2.2,0,0,1-.141-.06.193.193,0,0,1-.038-.21L2.072,33.3c.273-.637-.411-1.335-.418-1.341l-.013-.013A6.946,6.946,0,0,1,0,27.51C0,23.1,4.311,19.5,9.609,19.5s9.609,3.592,9.609,8.01-4.311,8.01-9.609,8.01a.195.195,0,0,1,0-.389c5.084,0,9.222-3.42,9.222-7.624s-4.139-7.621-9.222-7.621S.386,23.306.386,27.51A6.559,6.559,0,0,0,1.934,31.7a1.781,1.781,0,0,1,.493,1.762L.92,36.965,6.148,35.04a.193.193,0,1,1,.135.361L.631,37.48A.245.245,0,0,1,.565,37.493Z" transform="translate(0 -19.5)"/></svg>