<svg xmlns="http://www.w3.org/2000/svg" width="28.425" height="12.69" viewBox="0 0 28.425 12.69"><defs><style>.a{fill:#333;}</style></defs><g transform="translate(0)"><path class="a" d="M185.229,182.076a6.223,6.223,0,0,1-6.075-6.345,6.9,6.9,0,0,1,.441-2.4.235.235,0,0,1,.441.163,6.421,6.421,0,0,0-.413,2.239,5.612,5.612,0,1,0,5.606-5.871.237.237,0,1,1,0-.474,6.351,6.351,0,0,1,0,12.69Z" transform="translate(-170.833 -169.386)"/><path class="a" d="M458.527,202.332a.24.24,0,0,1-.177-.079,20.563,20.563,0,0,0-6.9-4.766.235.235,0,0,1,.177-.437,21.044,21.044,0,0,1,7.079,4.891.235.235,0,0,1-.023.33A.213.213,0,0,1,458.527,202.332Z" transform="translate(-430.34 -195.751)"/><path class="a" d="M14.412,307.526a19.585,19.585,0,0,1-10.864-3.093A14.15,14.15,0,0,1,.06,301.321a.241.241,0,0,1,.051-.33.241.241,0,0,1,.33.051h0a13.884,13.884,0,0,0,3.391,3.01,19.108,19.108,0,0,0,10.586,3.005,18.117,18.117,0,0,0,10.442-3,12.162,12.162,0,0,0,3.149-3,.235.235,0,0,1,.395.255,12.423,12.423,0,0,1-3.261,3.121A18.625,18.625,0,0,1,14.412,307.526Z" transform="translate(-0.016 -294.836)"/><path class="a" d="M.235,175.967a.225.225,0,0,1-.172-.074.236.236,0,0,1,.014-.334,28.126,28.126,0,0,1,4.292-3.084A20.6,20.6,0,0,1,14.4,169.385a.237.237,0,1,1,0,.474,20.112,20.112,0,0,0-9.782,3.015A27.33,27.33,0,0,0,.4,175.9.259.259,0,0,1,.235,175.967Z" transform="translate(0 -169.385)"/></g></svg>