<svg xmlns="http://www.w3.org/2000/svg" width="16.41" height="15.64" viewBox="0 0 16.41 15.64">
    <defs>
        <style>.a{fill: url(#grad); stroke: #bb261a;}</style>
        <linearGradient id="grad" x1="0" x2="100%" y1="0" y2="0">
            <stop offset="50%" stop-color="#bb261a"/>
            <stop offset="50%" stop-color="transparent"/>
        </linearGradient>
    </defs>
    
    <path class="a" d="M16.4,7.27a.294.294,0,0,0-.237-.2L10.845,6.3,8.468,1.482a.293.293,0,0,0-.526,0L5.566,6.3.252,7.071a.294.294,0,0,0-.163.5L3.934,11.32l-.908,5.294a.294.294,0,0,0,.117.287.291.291,0,0,0,.309.022l4.753-2.5,4.753,2.5a.294.294,0,0,0,.426-.31l-.908-5.293,3.845-3.749A.294.294,0,0,0,16.4,7.27Z" transform="translate(0 -1.318)"/>
</svg>