<svg xmlns="http://www.w3.org/2000/svg" width="45.694" height="33.737" viewBox="0 0 45.694 33.737"><defs><style>.a{fill:#bb261a;}</style></defs><g transform="translate(0 -25.905)"><path class="a" d="M0,41.367H11.083c-.189,8.077-2.48,8.994-5.358,9.256l-1.11.138v8.882l1.279-.069c3.757-.211,7.911-.889,10.683-4.31,2.429-3,3.5-7.9,3.5-15.421V25.905H0Z"/><path class="a" d="M111,25.905V41.367h10.935c-.189,8.077-2.406,8.994-5.284,9.256l-1.036.138v8.882l1.205-.069c3.757-.211,7.949-.889,10.72-4.31,2.429-3,3.537-7.9,3.537-15.421V25.905Z" transform="translate(-85.383)"/></g></svg>