<svg xmlns="http://www.w3.org/2000/svg" width="16.234" height="19.297" viewBox="0 0 16.234 19.297"><defs><style>.a{fill:#bb261a;}</style></defs><path class="a" d="M19.823,2.757h-1.2a.294.294,0,0,0-.07.014V1.514A1.534,1.534,0,0,0,17.007,0H6.628A1.534,1.534,0,0,0,5.079,1.514V15.638a1.534,1.534,0,0,0,1.549,1.514h1.82v.684a1.477,1.477,0,0,0,1.49,1.46h9.885a1.477,1.477,0,0,0,1.49-1.46V4.217A1.477,1.477,0,0,0,19.823,2.757ZM5.692,15.638V1.514a.921.921,0,0,1,.937-.9H17.007a.921.921,0,0,1,.937.9V15.638a.921.921,0,0,1-.937.9H6.628A.921.921,0,0,1,5.692,15.638Zm15.008,2.2a.864.864,0,0,1-.877.848H9.939a.864.864,0,0,1-.877-.848v-.684h7.946a1.534,1.534,0,0,0,1.549-1.514V3.355a.294.294,0,0,0,.07.014h1.2a.864.864,0,0,1,.877.848Z" transform="translate(-5.079)"/></svg>