<svg xmlns="http://www.w3.org/2000/svg" width="16.414" height="15.64" viewBox="0 0 16.414 15.64">
    <defs>
        <style>.a{fill:#bb261a;}</style>
    </defs>
    <path class="a" d="M3.316,16.957a.294.294,0,0,1-.289-.343l.908-5.294L.089,7.571a.294.294,0,0,1,.163-.5L5.567,6.3,7.944,1.481a.293.293,0,0,1,.263-.164h0a.293.293,0,0,1,.263.164L10.848,6.3l5.315.772a.294.294,0,0,1,.163.5L12.48,11.32l.908,5.294a.294.294,0,0,1-.426.31l-4.754-2.5-4.754,2.5A.3.3,0,0,1,3.316,16.957ZM.925,7.565l3.53,3.441a.294.294,0,0,1,.084.26l-.834,4.859,4.364-2.294a.293.293,0,0,1,.274,0l4.364,2.294-.833-4.859a.294.294,0,0,1,.084-.26l3.53-3.441-4.879-.709A.294.294,0,0,1,10.39,6.7L8.207,2.275,6.025,6.7a.294.294,0,0,1-.221.161Z" transform="translate(0 -1.317)"/>
</svg>